<svg xmlns="http://www.w3.org/2000/svg" width="30" height="30" viewBox="0 0 30 30" fill="none"><g clip-path="url(#clip0_502_21)"><path d="M15 2.7C19 2.7 19.5 2.7 21.1 2.8C22.5 2.9 23.3 3.1 23.8 3.3C24.5 3.6 25 3.9 25.6 4.4C26.1 5 26.4 5.4 26.7 6.1C26.9 6.7 27.1 7.5 27.2 8.9C27.3 10.5 27.3 11 27.3 15C27.3 19 27.3 19.5 27.2 21C27.1 22.5 26.9 23.3 26.7 23.8C26.4 24.5 26.1 25 25.6 25.6C25 26.1 24.5 26.4 23.8 26.7C23.3 26.9 22.5 27.1 21.1 27.2C19.5 27.3 19 27.3 15 27.3C11 27.3 10.5 27.3 8.9 27.2C7.5 27.1 6.7 26.9 6.2 26.7C5.5 26.4 5 26.1 4.4 25.6C3.9 25 3.6 24.5 3.3 23.8C3.1 23.3 2.9 22.5 2.8 21C2.7 19.5 2.7 19 2.7 15C2.7 11 2.7 10.5 2.8 8.9C2.9 7.5 3.1 6.7 3.3 6.1C3.6 5.4 3.9 4.9 4.4 4.4C5 3.9 5.5 3.6 6.2 3.3C6.7 3.1 7.5 2.9 8.9 2.8C10.5 2.7 11 2.7 15 2.7ZM15 0C10.9 0 10.4 0 8.8 0.1C7.2 0.2 6.1 0.4 5.2 0.8C4.2 1.2 3.4 1.7 2.5 2.5C1.7 3.4 1.2 4.2 0.8 5.2C0.4 6.1 0.2 7.2 0.1 8.8C0 10.4 0 10.9 0 15C0 19.1 0 19.6 0.1 21.2C0.2 22.8 0.4 23.9 0.8 24.8C1.2 25.8 1.7 26.6 2.5 27.5C3.4 28.3 4.2 28.8 5.2 29.2C6.1 29.6 7.2 29.8 8.8 29.9C10.4 30 10.9 30 15 30C19.1 30 19.6 30 21.2 29.9C22.8 29.8 23.9 29.6 24.8 29.2C25.8 28.8 26.6 28.3 27.5 27.5C28.3 26.6 28.8 25.8 29.2 24.8C29.6 23.9 29.8 22.8 29.9 21.2C30 19.6 30 19.1 30 15C30 10.9 30 10.4 29.9 8.8C29.8 7.2 29.6 6.1 29.2 5.2C28.8 4.2 28.3 3.4 27.5 2.5C26.6 1.7 25.8 1.2 24.8 0.8C23.9 0.4 22.8 0.2 21.2 0.1C19.6 0 19.1 0 15 0Z" fill="#100B16"/><path d="M15 7.3C10.7 7.3 7.3 10.7 7.3 15C7.3 19.3 10.7 22.7 15 22.7C19.3 22.7 22.7 19.3 22.7 15C22.7 10.7 19.3 7.3 15 7.3ZM15 20C12.2 20 10 17.8 10 15C10 12.2 12.2 10 15 10C17.8 10 20 12.2 20 15C20 17.8 17.8 20 15 20Z" fill="#100B16"/><path d="M24.8 7C24.8 8 24 8.8 23 8.8C22 8.8 21.2 8 21.2 7C21.2 6 22 5.2 23 5.2C24 5.2 24.8 6 24.8 7Z" fill="#100B16"/></g><defs><clipPath id="clip0_502_21"><rect width="30" height="30" fill="white"/></clipPath></defs></svg>