<svg width="34" height="34" viewBox="0 0 34 34" fill="none" xmlns="http://www.w3.org/2000/svg">
<path d="M5.66667 8.50001L14.3192 15.0341L14.322 15.0364C15.2828 15.741 15.7634 16.0935 16.2899 16.2296C16.7552 16.35 17.2444 16.35 17.7097 16.2296C18.2366 16.0934 18.7187 15.7398 19.6812 15.0341C19.6812 15.0341 25.2309 10.7751 28.3333 8.50001M4.25 22.3836V11.617C4.25 10.0301 4.25 9.23614 4.55881 8.63006C4.83046 8.09693 5.26359 7.6638 5.79671 7.39216C6.4028 7.08334 7.19679 7.08334 8.78361 7.08334H25.2169C26.8038 7.08334 27.5961 7.08334 28.2021 7.39216C28.7353 7.6638 29.1698 8.09693 29.4415 8.63006C29.75 9.23555 29.75 10.0286 29.75 11.6123V22.3884C29.75 23.9721 29.75 24.764 29.4415 25.3695C29.1698 25.9026 28.7353 26.3365 28.2021 26.6082C27.5967 26.9167 26.8048 26.9167 25.221 26.9167H8.77896C7.19524 26.9167 6.4022 26.9167 5.79671 26.6082C5.26359 26.3365 4.83046 25.9026 4.55881 25.3695C4.25 24.7634 4.25 23.9704 4.25 22.3836Z" stroke="#100B16" stroke-width="2" stroke-linecap="round" stroke-linejoin="round"/>
</svg>
