<svg xmlns="http://www.w3.org/2000/svg" width="34" height="34" viewBox="0 0 34 34" fill="none"><path d="M5.7 8.5L14.3 15L14.3 15C15.3 15.7 15.8 16.1 16.3 16.2C16.8 16.4 17.2 16.4 17.7 16.2C18.2 16.1 18.7 15.7 19.7 15C19.7 15 25.2 10.8 28.3 8.5M4.3 22.4V11.6C4.3 10 4.3 9.2 4.6 8.6C4.8 8.1 5.3 7.7 5.8 7.4C6.4 7.1 7.2 7.1 8.8 7.1H25.2C26.8 7.1 27.6 7.1 28.2 7.4C28.7 7.7 29.2 8.1 29.4 8.6C29.8 9.2 29.8 10 29.8 11.6V22.4C29.8 24 29.8 24.8 29.4 25.4C29.2 25.9 28.7 26.3 28.2 26.6C27.6 26.9 26.8 26.9 25.2 26.9H8.8C7.2 26.9 6.4 26.9 5.8 26.6C5.3 26.3 4.8 25.9 4.6 25.4C4.3 24.8 4.3 24 4.3 22.4Z" stroke="#100B16" stroke-width="2" stroke-linecap="round" stroke-linejoin="round"/></svg>