<svg xmlns="http://www.w3.org/2000/svg" width="30" height="30" viewBox="0 0 30 30" fill="none"><path d="M15 0C23.3 0 30 6.7 30 15C30 23.3 23.3 30 15 30C12.4 30 9.9 29.3 7.8 28.2L0 30L2 22.5C0.7 20.3 0 17.7 0 15C0 6.7 6.7 0 15 0ZM15 2.7C8.2 2.7 2.7 8.2 2.7 15C2.7 17.6 3.5 20.1 4.9 22L3.6 26.4L8.2 25.3C10.2 26.6 12.5 27.3 15 27.3C21.8 27.3 27.3 21.8 27.3 15C27.3 8.2 21.8 2.7 15 2.7ZM10.9 7.6C11.1 7.6 11.2 7.7 11.3 7.9L13 11.5C13.1 11.7 13.1 11.9 12.9 12L11.7 13.3C11.4 13.5 11.3 14 11.5 14.3C12 15.2 12.6 16 13.3 16.7C14 17.4 14.8 18 15.7 18.5C16 18.7 16.5 18.6 16.7 18.3L18 17.1C18.1 16.9 18.3 16.9 18.5 17L22.1 18.7C22.3 18.8 22.4 18.9 22.4 19.1C22.4 19.6 22.2 20.6 21.3 21.4C18.9 23.8 14.5 21.1 14.4 21C13.3 20.4 12.3 19.6 11.3 18.7C10.4 17.7 9.6 16.7 9 15.6C8.9 15.5 6.2 11.1 8.6 8.7C9.4 7.8 10.4 7.6 10.9 7.6Z" fill="#100B16"/></svg>