<svg width="30" height="30" viewBox="0 0 30 30" fill="none" xmlns="http://www.w3.org/2000/svg">
<path d="M15 0C23.2841 1.78798e-05 30 6.71584 30 15C30 23.2842 23.2841 30 15 30C12.3877 30 9.93201 29.3322 7.79297 28.1582L0 30L1.99707 22.4834C0.726816 20.281 0 17.7252 0 15C2.41619e-07 6.71583 6.71585 0 15 0ZM15 2.68652C8.1996 2.68652 2.68652 8.19958 2.68652 15C2.68661 17.6218 3.50641 20.0519 4.90332 22.0488L3.6123 26.4492L8.21582 25.2773C10.1612 26.5644 12.493 27.3125 15 27.3125C21.8002 27.3125 27.3133 21.8002 27.3135 15C27.3135 8.19959 21.8004 2.68654 15 2.68652ZM10.8779 7.59766C11.0614 7.58287 11.2303 7.68904 11.3086 7.85547L13.0195 11.4854C13.1002 11.657 13.0648 11.861 12.9307 11.9951L11.6553 13.2705C11.3796 13.5462 11.2986 13.9757 11.4883 14.3164C11.9536 15.1509 12.5798 15.9548 13.3047 16.6943C14.0442 17.4193 14.8481 18.0458 15.6826 18.5107C16.0234 18.7007 16.4532 18.6196 16.7295 18.3438L18.0049 17.0684C18.1391 16.9345 18.3431 16.8993 18.5146 16.9805L22.1436 18.6904C22.3102 18.7688 22.4173 18.9387 22.4023 19.1221C22.3631 19.5997 22.171 20.5564 21.3135 21.4141C18.8937 23.8338 14.5496 21.1001 14.3662 20.9902C13.2967 20.4157 12.2801 19.6468 11.3164 18.6836C10.3531 17.7203 9.58337 16.7034 9.00879 15.6338C8.90141 15.4553 6.16366 11.1081 8.58496 8.68652C9.44288 7.82861 10.4004 7.63682 10.8779 7.59766Z" fill="#100B16"/>
</svg>
